<svg width="96" height="96" viewBox="0 0 96 96" fill="none" xmlns="http://www.w3.org/2000/svg">
<rect width="96" height="96" rx="48" fill="#0F52BD" fill-opacity="0.1"/>
<path d="M48 68C45.2333 68 42.6333 67.475 40.2 66.425C37.7667 65.375 35.65 63.95 33.85 62.15C32.05 60.35 30.625 58.2333 29.575 55.8C28.525 53.3667 28 50.7667 28 48H32C32 50.2 32.4167 52.275 33.25 54.225C34.0833 56.175 35.225 57.875 36.675 59.325C38.125 60.775 39.825 61.925 41.775 62.775C43.725 63.625 45.8 64.05 48 64.05C52.4667 64.05 56.25 62.5 59.35 59.4C62.45 56.3 64 52.5167 64 48.05C64 43.5833 62.45 39.8 59.35 36.7C56.25 33.6 52.4667 32.05 48 32.05C45.0333 32.05 42.3417 32.775 39.925 34.225C37.5083 35.675 35.6 37.6 34.2 40H40V44H28V32H32V36C33.8333 33.5667 36.1333 31.625 38.9 30.175C41.6667 28.725 44.7 28 48 28C50.7667 28 53.3667 28.525 55.8 29.575C58.2333 30.625 60.35 32.05 62.15 33.85C63.95 35.65 65.375 37.7667 66.425 40.2C67.475 42.6333 68 45.2333 68 48C68 50.7667 67.475 53.3667 66.425 55.8C65.375 58.2333 63.95 60.35 62.15 62.15C60.35 63.95 58.2333 65.375 55.8 66.425C53.3667 67.475 50.7667 68 48 68ZM44 56C43.4333 56 42.9583 55.8083 42.575 55.425C42.1917 55.0417 42 54.5667 42 54V48C42 47.4333 42.1917 46.9583 42.575 46.575C42.9583 46.1917 43.4333 46 44 46V44C44 42.9 44.3917 41.9583 45.175 41.175C45.9583 40.3917 46.9 40 48 40C49.1 40 50.0417 40.3917 50.825 41.175C51.6083 41.9583 52 42.9 52 44V46C52.5667 46 53.0417 46.1917 53.425 46.575C53.8083 46.9583 54 47.4333 54 48V54C54 54.5667 53.8083 55.0417 53.425 55.425C53.0417 55.8083 52.5667 56 52 56H44ZM46 46H50V44C50 43.4333 49.8083 42.9583 49.425 42.575C49.0417 42.1917 48.5667 42 48 42C47.4333 42 46.9583 42.1917 46.575 42.575C46.1917 42.9583 46 43.4333 46 44V46Z" fill="#0F52BD"/>
</svg>
