<svg width="128" height="128" viewBox="0 0 128 128" fill="none" xmlns="http://www.w3.org/2000/svg">
<rect width="128" height="128" rx="64" fill="#ECFDF5"/>
<rect x="2" y="2" width="124" height="124" rx="62" stroke="#10B981" stroke-opacity="0.2" stroke-width="4"/>
<path d="M59.575 79.3L81.85 57.025L75.625 50.725L59.575 66.775L51.925 59.125L45.7 65.425L59.575 79.3ZM64 96.55C59.45 96.55 55.2003 95.6979 51.2509 93.9937C47.3015 92.2896 43.8661 89.9767 40.9447 87.0553C38.0232 84.1338 35.7104 80.6984 34.0062 76.7491C32.302 72.7997 31.45 68.55 31.45 64C31.45 59.45 32.302 55.2003 34.0062 51.251C35.7104 47.3016 38.0232 43.8662 40.9447 40.9447C43.8661 38.0233 47.3015 35.7105 51.2509 34.0063C55.2003 32.3021 59.45 31.45 64 31.45C68.5499 31.45 72.7996 32.3021 76.749 34.0063C80.6984 35.7105 84.1338 38.0233 87.0552 40.9447C89.9767 43.8662 92.2895 47.3016 93.9937 51.251C95.6979 55.2003 96.5499 59.45 96.5499 64C96.5499 68.55 95.6979 72.7997 93.9937 76.7491C92.2895 80.6984 89.9767 84.1338 87.0552 87.0553C84.1338 89.9767 80.6984 92.2896 76.749 93.9937C72.7996 95.6979 68.5499 96.55 64 96.55Z" fill="#10B981"/>
</svg>
