<svg width="64" height="72" viewBox="0 0 64 72" fill="none" xmlns="http://www.w3.org/2000/svg">
<rect width="64" height="72" rx="32" fill="#0F52BD" fill-opacity="0.1"/>
<path d="M32 38C30.0333 38 28.375 37.325 27.025 35.975C25.675 34.625 25 32.9667 25 31C25 29.0333 25.675 27.375 27.025 26.025C28.375 24.675 30.0333 24 32 24C33.9667 24 35.625 24.675 36.975 26.025C38.325 27.375 39 29.0333 39 31C39 32.9667 38.325 34.625 36.975 35.975C35.625 37.325 33.9667 38 32 38ZM32 34C32.8667 34 33.5833 33.7167 34.15 33.15C34.7167 32.5833 35 31.8667 35 31C35 30.1333 34.7167 29.4167 34.15 28.85C33.5833 28.2833 32.8667 28 32 28C31.1333 28 30.4167 28.2833 29.85 28.85C29.2833 29.4167 29 30.1333 29 31C29 31.8667 29.2833 32.5833 29.85 33.15C30.4167 33.7167 31.1333 34 32 34ZM32 56C27.3667 54.8333 23.5417 52.175 20.525 48.025C17.5083 43.875 16 39.2667 16 34.2V22L32 16L48 22V34.2C48 39.2667 46.4917 43.875 43.475 48.025C40.4583 52.175 36.6333 54.8333 32 56ZM32 20.25L20 24.75V34.2C20 36 20.25 37.75 20.75 39.45C21.25 41.15 21.9333 42.75 22.8 44.25C24.2 43.55 25.6667 43 27.2 42.6C28.7333 42.2 30.3333 42 32 42C33.6667 42 35.2667 42.2 36.8 42.6C38.3333 43 39.8 43.55 41.2 44.25C42.0667 42.75 42.75 41.15 43.25 39.45C43.75 37.75 44 36 44 34.2V24.75L32 20.25ZM32 46C30.8 46 29.6333 46.1333 28.5 46.4C27.3667 46.6667 26.2833 47.0333 25.25 47.5C26.2167 48.5 27.2667 49.3667 28.4 50.1C29.5333 50.8333 30.7333 51.4 32 51.8C33.2667 51.4 34.4667 50.8333 35.6 50.1C36.7333 49.3667 37.7833 48.5 38.75 47.5C37.7167 47.0333 36.6333 46.6667 35.5 46.4C34.3667 46.1333 33.2 46 32 46Z" fill="#0F52BD"/>
</svg>
